<?xml version="1.0" encoding="UTF-8" standalone="no"?>
<!DOCTYPE svg PUBLIC "-//W3C//DTD SVG 1.1//EN"
 "http://www.w3.org/Graphics/SVG/1.1/DTD/svg11.dtd">
<!-- Generated by graphviz version 2.43.0 (0)
 -->
<!-- Title: %3 Pages: 1 -->
<svg width="545pt" height="346pt"
 viewBox="0.00 0.00 545.00 346.00" xmlns="http://www.w3.org/2000/svg" xmlns:xlink="http://www.w3.org/1999/xlink">
<g id="graph0" class="graph" transform="scale(1 1) rotate(0) translate(36 310)">
<title>%3</title>
<polygon fill="white" stroke="transparent" points="-36,36 -36,-310 509,-310 509,36 -36,36"/>
<!-- Start -->
<g id="node1" class="node">
<title>Start</title>
<polygon fill="none" stroke="black" points="0.5,-252.5 0.5,-273.5 104.5,-273.5 104.5,-252.5 0.5,-252.5"/>
<text text-anchor="start" x="3.5" y="-260.3" font-family="Times,serif" font-style="italic" font-size="14.00">function start</text>
<polygon fill="none" stroke="black" points="0.5,-231.5 0.5,-252.5 104.5,-252.5 104.5,-231.5 0.5,-231.5"/>
<text text-anchor="start" x="17" y="-238.3" font-family="Times,serif" font-size="14.00">rsp+0x40</text>
<polygon fill="none" stroke="black" points="104.5,-231.5 104.5,-252.5 159.5,-252.5 159.5,-231.5 104.5,-231.5"/>
<polygon fill="none" stroke="black" points="0.5,-210.5 0.5,-231.5 104.5,-231.5 104.5,-210.5 0.5,-210.5"/>
<text text-anchor="start" x="17" y="-217.3" font-family="Times,serif" font-size="14.00">rsp+0x38</text>
<polygon fill="none" stroke="black" points="104.5,-210.5 104.5,-231.5 159.5,-231.5 159.5,-210.5 104.5,-210.5"/>
<polygon fill="none" stroke="black" points="0.5,-189.5 0.5,-210.5 104.5,-210.5 104.5,-189.5 0.5,-189.5"/>
<text text-anchor="start" x="17" y="-196.3" font-family="Times,serif" font-size="14.00">rsp+0x30</text>
<polygon fill="none" stroke="black" points="104.5,-189.5 104.5,-210.5 159.5,-210.5 159.5,-189.5 104.5,-189.5"/>
<polygon fill="none" stroke="black" points="0.5,-168.5 0.5,-189.5 104.5,-189.5 104.5,-168.5 0.5,-168.5"/>
<text text-anchor="start" x="17" y="-175.3" font-family="Times,serif" font-size="14.00">rsp+0x28</text>
<polygon fill="none" stroke="black" points="104.5,-168.5 104.5,-189.5 159.5,-189.5 159.5,-168.5 104.5,-168.5"/>
<polygon fill="none" stroke="black" points="0.5,-147.5 0.5,-168.5 104.5,-168.5 104.5,-147.5 0.5,-147.5"/>
<text text-anchor="start" x="17" y="-154.3" font-family="Times,serif" font-size="14.00">rsp+0x20</text>
<polygon fill="none" stroke="black" points="104.5,-147.5 104.5,-168.5 159.5,-168.5 159.5,-147.5 104.5,-147.5"/>
<text text-anchor="start" x="127" y="-154.3" font-family="Times,serif" font-size="14.00">2</text>
<polygon fill="none" stroke="black" points="0.5,-126.5 0.5,-147.5 104.5,-147.5 104.5,-126.5 0.5,-126.5"/>
<text text-anchor="start" x="17" y="-133.3" font-family="Times,serif" font-size="14.00">rsp+0x18</text>
<polygon fill="none" stroke="black" points="104.5,-126.5 104.5,-147.5 159.5,-147.5 159.5,-126.5 104.5,-126.5"/>
<text text-anchor="start" x="116.5" y="-133.3" font-family="Times,serif" font-size="14.00">&quot;go&quot;</text>
<polygon fill="none" stroke="black" points="0.5,-105.5 0.5,-126.5 104.5,-126.5 104.5,-105.5 0.5,-105.5"/>
<text text-anchor="start" x="17" y="-112.3" font-family="Times,serif" font-size="14.00">rsp+0x10</text>
<polygon fill="none" stroke="black" points="104.5,-105.5 104.5,-126.5 159.5,-126.5 159.5,-105.5 104.5,-105.5"/>
<text text-anchor="start" x="127" y="-112.3" font-family="Times,serif" font-size="14.00">5</text>
<polygon fill="none" stroke="black" points="0.5,-84.5 0.5,-105.5 104.5,-105.5 104.5,-84.5 0.5,-84.5"/>
<text text-anchor="start" x="21.5" y="-91.3" font-family="Times,serif" font-size="14.00">rsp+0x8</text>
<polygon fill="none" stroke="black" points="104.5,-84.5 104.5,-105.5 159.5,-105.5 159.5,-84.5 104.5,-84.5"/>
<text text-anchor="start" x="107.5" y="-91.3" font-family="Times,serif" font-size="14.00">&quot;hello&quot;</text>
</g>
<!-- Return -->
<g id="node2" class="node">
<title>Return</title>
<polygon fill="none" stroke="black" points="303,-167.5 303,-188.5 418,-188.5 418,-167.5 303,-167.5"/>
<text text-anchor="start" x="306" y="-175.3" font-family="Times,serif" font-style="italic" font-size="14.00">function return</text>
<polygon fill="none" stroke="black" points="303,-146.5 303,-167.5 418,-167.5 418,-146.5 303,-146.5"/>
<text text-anchor="start" x="325" y="-153.3" font-family="Times,serif" font-size="14.00">rsp+0x40</text>
<polygon fill="none" stroke="black" points="418,-146.5 418,-167.5 473,-167.5 473,-146.5 418,-146.5"/>
<text text-anchor="start" x="440.5" y="-153.3" font-family="Times,serif" font-size="14.00">5</text>
<polygon fill="none" stroke="black" points="303,-125.5 303,-146.5 418,-146.5 418,-125.5 303,-125.5"/>
<text text-anchor="start" x="325" y="-132.3" font-family="Times,serif" font-size="14.00">rsp+0x38</text>
<polygon fill="none" stroke="black" points="418,-125.5 418,-146.5 473,-146.5 473,-125.5 418,-125.5"/>
<text text-anchor="start" x="421" y="-132.3" font-family="Times,serif" font-size="14.00">&quot;hello&quot;</text>
<polygon fill="none" stroke="black" points="303,-104.5 303,-125.5 418,-125.5 418,-104.5 303,-104.5"/>
<text text-anchor="start" x="325" y="-111.3" font-family="Times,serif" font-size="14.00">rsp+0x30</text>
<polygon fill="none" stroke="black" points="418,-104.5 418,-125.5 473,-125.5 473,-104.5 418,-104.5"/>
<text text-anchor="start" x="440.5" y="-111.3" font-family="Times,serif" font-size="14.00">2</text>
<polygon fill="none" stroke="black" points="303,-83.5 303,-104.5 418,-104.5 418,-83.5 303,-83.5"/>
<text text-anchor="start" x="325" y="-90.3" font-family="Times,serif" font-size="14.00">rsp+0x28</text>
<polygon fill="none" stroke="black" points="418,-83.5 418,-104.5 473,-104.5 473,-83.5 418,-83.5"/>
<text text-anchor="start" x="430" y="-90.3" font-family="Times,serif" font-size="14.00">&quot;go&quot;</text>
<polygon fill="none" stroke="black" points="303,-62.5 303,-83.5 418,-83.5 418,-62.5 303,-62.5"/>
<text text-anchor="start" x="325" y="-69.3" font-family="Times,serif" font-size="14.00">rsp+0x20</text>
<polygon fill="none" stroke="black" points="418,-62.5 418,-83.5 473,-83.5 473,-62.5 418,-62.5"/>
<polygon fill="none" stroke="black" points="303,-41.5 303,-62.5 418,-62.5 418,-41.5 303,-41.5"/>
<text text-anchor="start" x="325" y="-48.3" font-family="Times,serif" font-size="14.00">rsp+0x18</text>
<polygon fill="none" stroke="black" points="418,-41.5 418,-62.5 473,-62.5 473,-41.5 418,-41.5"/>
<polygon fill="none" stroke="black" points="303,-20.5 303,-41.5 418,-41.5 418,-20.5 303,-20.5"/>
<text text-anchor="start" x="325" y="-27.3" font-family="Times,serif" font-size="14.00">rsp+0x10</text>
<polygon fill="none" stroke="black" points="418,-20.5 418,-41.5 473,-41.5 473,-20.5 418,-20.5"/>
<polygon fill="none" stroke="black" points="303,0.5 303,-20.5 418,-20.5 418,0.5 303,0.5"/>
<text text-anchor="start" x="329.5" y="-6.3" font-family="Times,serif" font-size="14.00">rsp+0x8</text>
<polygon fill="none" stroke="black" points="418,0.5 418,-20.5 473,-20.5 473,0.5 418,0.5"/>
</g>
<!-- Start&#45;&gt;Return -->
<g id="edge1" class="edge">
<title>Start:1&#45;&gt;Return:3</title>
<path fill="none" stroke="black" d="M159,-94.5C222.15,-94.5 235.05,-132.19 292.9,-136.16"/>
<polygon fill="black" stroke="black" points="292.89,-139.66 303,-136.5 293.12,-132.67 292.89,-139.66"/>
</g>
<!-- Start&#45;&gt;Return -->
<g id="edge2" class="edge">
<title>Start:2&#45;&gt;Return:4</title>
<path fill="none" stroke="black" d="M159,-115.5C222.15,-115.5 235.05,-153.19 292.9,-157.16"/>
<polygon fill="black" stroke="black" points="292.89,-160.66 303,-157.5 293.12,-153.67 292.89,-160.66"/>
</g>
<!-- Start&#45;&gt;Return -->
<g id="edge3" class="edge">
<title>Start:3&#45;&gt;Return:1</title>
<path fill="none" stroke="black" d="M159,-136.5C222.27,-136.5 234.95,-97.92 292.89,-93.85"/>
<polygon fill="black" stroke="black" points="293.13,-97.34 303,-93.5 292.89,-90.34 293.13,-97.34"/>
</g>
<!-- Start&#45;&gt;Return -->
<g id="edge4" class="edge">
<title>Start:4&#45;&gt;Return:2</title>
<path fill="none" stroke="black" d="M159,-157.5C222.15,-157.5 235.05,-119.81 292.9,-115.84"/>
<polygon fill="black" stroke="black" points="293.12,-119.33 303,-115.5 292.89,-112.34 293.12,-119.33"/>
</g>
</g>
</svg>
